<mxfile host="65bd71144e">
    <diagram id="DLjmupUZ2m6u4R_Xzwk4" name="Page-1">
        <mxGraphModel dx="666" dy="338" grid="0" gridSize="10" guides="1" tooltips="1" connect="1" arrows="1" fold="1" page="1" pageScale="1" pageWidth="850" pageHeight="1100" background="#ffffff" math="0" shadow="0">
            <root>
                <mxCell id="0"/>
                <mxCell id="1" parent="0"/>
                <mxCell id="22" value="empresas" style="shape=umlFrame;whiteSpace=wrap;html=1;strokeColor=#000000;" parent="1" vertex="1">
                    <mxGeometry x="70" y="48" width="755" height="874" as="geometry"/>
                </mxCell>
                <mxCell id="37" style="edgeStyle=none;html=1;entryX=0;entryY=0.5;entryDx=0;entryDy=0;strokeColor=#000000;fontSize=17;fontColor=#000000;" parent="1" source="23" target="33" edge="1">
                    <mxGeometry relative="1" as="geometry"/>
                </mxCell>
                <mxCell id="38" style="edgeStyle=none;html=1;strokeColor=#000000;fontSize=17;fontColor=#000000;" parent="1" source="23" target="36" edge="1">
                    <mxGeometry relative="1" as="geometry"/>
                </mxCell>
                <mxCell id="39" style="edgeStyle=none;html=1;entryX=0;entryY=0.5;entryDx=0;entryDy=0;strokeColor=#000000;fontSize=17;fontColor=#000000;" parent="1" source="23" target="34" edge="1">
                    <mxGeometry relative="1" as="geometry"/>
                </mxCell>
                <mxCell id="40" style="edgeStyle=none;html=1;strokeColor=#000000;fontSize=17;fontColor=#000000;entryX=0;entryY=0.5;entryDx=0;entryDy=0;" parent="1" source="23" target="35" edge="1">
                    <mxGeometry relative="1" as="geometry"/>
                </mxCell>
                <mxCell id="47" style="edgeStyle=none;html=1;entryX=0;entryY=0.5;entryDx=0;entryDy=0;strokeColor=#000000;fontSize=17;fontColor=#000000;" parent="1" source="23" target="45" edge="1">
                    <mxGeometry relative="1" as="geometry"/>
                </mxCell>
                <mxCell id="48" style="edgeStyle=none;html=1;entryX=0.02;entryY=0.366;entryDx=0;entryDy=0;entryPerimeter=0;strokeColor=#000000;fontSize=17;fontColor=#000000;" parent="1" source="23" target="46" edge="1">
                    <mxGeometry relative="1" as="geometry"/>
                </mxCell>
                <mxCell id="56" style="edgeStyle=none;html=1;entryX=0;entryY=0.5;entryDx=0;entryDy=0;strokeColor=#000000;" edge="1" parent="1" source="23" target="55">
                    <mxGeometry relative="1" as="geometry"/>
                </mxCell>
                <mxCell id="23" value="Actor" style="shape=umlActor;verticalLabelPosition=bottom;verticalAlign=top;html=1;strokeColor=#0A0A0A;" parent="1" vertex="1">
                    <mxGeometry x="216" y="205" width="30" height="60" as="geometry"/>
                </mxCell>
                <mxCell id="24" value="&lt;font size=&quot;1&quot; color=&quot;#000000&quot;&gt;&lt;b style=&quot;font-size: 14px;&quot;&gt;Usuário&lt;/b&gt;&lt;/font&gt;" style="text;html=1;align=center;verticalAlign=middle;whiteSpace=wrap;rounded=0;" parent="1" vertex="1">
                    <mxGeometry x="201" y="277" width="60" height="30" as="geometry"/>
                </mxCell>
                <mxCell id="31" value="" style="edgeStyle=none;html=1;strokeColor=#000000;fontSize=14;fontColor=#000000;" parent="1" source="25" target="24" edge="1">
                    <mxGeometry relative="1" as="geometry"/>
                </mxCell>
                <mxCell id="25" value="Actor" style="shape=umlActor;verticalLabelPosition=bottom;verticalAlign=top;html=1;strokeColor=#0A0A0A;" parent="1" vertex="1">
                    <mxGeometry x="216" y="379" width="30" height="60" as="geometry"/>
                </mxCell>
                <mxCell id="26" value="&lt;font size=&quot;1&quot; color=&quot;#000000&quot;&gt;&lt;b style=&quot;font-size: 14px;&quot;&gt;Empreendedor&lt;/b&gt;&lt;/font&gt;" style="text;html=1;align=center;verticalAlign=middle;whiteSpace=wrap;rounded=0;" parent="1" vertex="1">
                    <mxGeometry x="176" y="442" width="116" height="30" as="geometry"/>
                </mxCell>
                <mxCell id="29" value="" style="rounded=0;whiteSpace=wrap;html=1;strokeColor=#0A0A0A;fontSize=14;fontColor=#000000;fillColor=none;" parent="1" vertex="1">
                    <mxGeometry x="379" y="86" width="306" height="783" as="geometry"/>
                </mxCell>
                <mxCell id="32" value="&lt;font style=&quot;font-size: 17px;&quot;&gt;Empresas&lt;/font&gt;" style="text;html=1;strokeColor=none;fillColor=none;align=center;verticalAlign=middle;whiteSpace=wrap;rounded=0;fontSize=14;fontColor=#000000;" parent="1" vertex="1">
                    <mxGeometry x="502" y="107" width="60" height="30" as="geometry"/>
                </mxCell>
                <mxCell id="33" value="Cadastrar MEI" style="ellipse;whiteSpace=wrap;html=1;strokeColor=#0A0A0A;fontSize=17;fontColor=#000000;fillColor=none;" parent="1" vertex="1">
                    <mxGeometry x="458" y="162" width="161" height="70" as="geometry"/>
                </mxCell>
                <mxCell id="34" value="Visualizar MEI" style="ellipse;whiteSpace=wrap;html=1;strokeColor=#0A0A0A;fontSize=17;fontColor=#000000;fillColor=none;" parent="1" vertex="1">
                    <mxGeometry x="458" y="332" width="161" height="70" as="geometry"/>
                </mxCell>
                <mxCell id="35" value="Editar MEI" style="ellipse;whiteSpace=wrap;html=1;strokeColor=#0A0A0A;fontSize=17;fontColor=#000000;fillColor=none;" parent="1" vertex="1">
                    <mxGeometry x="461" y="421" width="161" height="70" as="geometry"/>
                </mxCell>
                <mxCell id="36" value="Listar MEIs" style="ellipse;whiteSpace=wrap;html=1;strokeColor=#0A0A0A;fontSize=17;fontColor=#000000;fillColor=none;" parent="1" vertex="1">
                    <mxGeometry x="458" y="244" width="161" height="70" as="geometry"/>
                </mxCell>
                <mxCell id="43" style="edgeStyle=none;html=1;entryX=1;entryY=0.5;entryDx=0;entryDy=0;strokeColor=#000000;fontSize=17;fontColor=#000000;" parent="1" source="41" target="36" edge="1">
                    <mxGeometry relative="1" as="geometry"/>
                </mxCell>
                <mxCell id="44" style="edgeStyle=none;html=1;entryX=1;entryY=0.5;entryDx=0;entryDy=0;strokeColor=#000000;fontSize=17;fontColor=#000000;" parent="1" source="41" target="34" edge="1">
                    <mxGeometry relative="1" as="geometry"/>
                </mxCell>
                <mxCell id="50" style="edgeStyle=none;html=1;entryX=1;entryY=0.5;entryDx=0;entryDy=0;strokeColor=#000000;fontSize=17;fontColor=#000000;" parent="1" source="41" target="45" edge="1">
                    <mxGeometry relative="1" as="geometry"/>
                </mxCell>
                <mxCell id="51" style="edgeStyle=none;html=1;entryX=1;entryY=0.5;entryDx=0;entryDy=0;strokeColor=#000000;fontSize=17;fontColor=#000000;" parent="1" source="41" target="46" edge="1">
                    <mxGeometry relative="1" as="geometry"/>
                </mxCell>
                <mxCell id="57" style="edgeStyle=none;html=1;entryX=1;entryY=0.5;entryDx=0;entryDy=0;strokeColor=#000000;" edge="1" parent="1" source="41" target="55">
                    <mxGeometry relative="1" as="geometry"/>
                </mxCell>
                <mxCell id="41" value="Actor" style="shape=umlActor;verticalLabelPosition=bottom;verticalAlign=top;html=1;strokeColor=#0A0A0A;" parent="1" vertex="1">
                    <mxGeometry x="757" y="419" width="30" height="60" as="geometry"/>
                </mxCell>
                <mxCell id="42" value="&lt;font size=&quot;1&quot; color=&quot;#000000&quot;&gt;&lt;b style=&quot;font-size: 14px;&quot;&gt;Cliente&lt;/b&gt;&lt;/font&gt;" style="text;html=1;align=center;verticalAlign=middle;whiteSpace=wrap;rounded=0;" parent="1" vertex="1">
                    <mxGeometry x="753" y="487" width="60" height="30" as="geometry"/>
                </mxCell>
                <mxCell id="45" value="Avaliar MEI" style="ellipse;whiteSpace=wrap;html=1;strokeColor=#0A0A0A;fontSize=17;fontColor=#000000;fillColor=none;" parent="1" vertex="1">
                    <mxGeometry x="461" y="523" width="161" height="70" as="geometry"/>
                </mxCell>
                <mxCell id="46" value="Favoritar MEI" style="ellipse;whiteSpace=wrap;html=1;strokeColor=#0A0A0A;fontSize=17;fontColor=#000000;fillColor=none;" parent="1" vertex="1">
                    <mxGeometry x="461" y="631" width="161" height="70" as="geometry"/>
                </mxCell>
                <mxCell id="55" value="Criar proposta de orçamento" style="ellipse;whiteSpace=wrap;html=1;strokeColor=#0A0A0A;fontSize=17;fontColor=#000000;fillColor=none;" vertex="1" parent="1">
                    <mxGeometry x="461" y="739" width="161" height="70" as="geometry"/>
                </mxCell>
            </root>
        </mxGraphModel>
    </diagram>
</mxfile>